<svg width="51" height="51" viewBox="0 0 51 51" fill="none" xmlns="http://www.w3.org/2000/svg">
<mask id="mask0_116_4569" style="mask-type:alpha" maskUnits="userSpaceOnUse" x="0" y="0" width="51" height="51">
<rect width="51" height="51" fill="#D9D9D9"/>
</mask>
<g mask="url(#mask0_116_4569)">
<path d="M10.625 46.75C9.45625 46.75 8.45573 46.3339 7.62344 45.5016C6.79115 44.6693 6.375 43.6688 6.375 42.5V12.75C6.375 11.5813 6.79115 10.5807 7.62344 9.74844C8.45573 8.91615 9.45625 8.5 10.625 8.5H12.75V4.25H17V8.5H34V4.25H38.25V8.5H40.375C41.5438 8.5 42.5443 8.91615 43.3766 9.74844C44.2089 10.5807 44.625 11.5813 44.625 12.75V42.5C44.625 43.6688 44.2089 44.6693 43.3766 45.5016C42.5443 46.3339 41.5438 46.75 40.375 46.75H10.625ZM10.625 42.5H40.375V21.25H10.625V42.5ZM10.625 17H40.375V12.75H10.625V17ZM25.5 29.75C24.8979 29.75 24.3932 29.5464 23.9859 29.1391C23.5786 28.7318 23.375 28.2271 23.375 27.625C23.375 27.0229 23.5786 26.5182 23.9859 26.1109C24.3932 25.7036 24.8979 25.5 25.5 25.5C26.1021 25.5 26.6068 25.7036 27.0141 26.1109C27.4214 26.5182 27.625 27.0229 27.625 27.625C27.625 28.2271 27.4214 28.7318 27.0141 29.1391C26.6068 29.5464 26.1021 29.75 25.5 29.75ZM17 29.75C16.3979 29.75 15.8932 29.5464 15.4859 29.1391C15.0786 28.7318 14.875 28.2271 14.875 27.625C14.875 27.0229 15.0786 26.5182 15.4859 26.1109C15.8932 25.7036 16.3979 25.5 17 25.5C17.6021 25.5 18.1068 25.7036 18.5141 26.1109C18.9214 26.5182 19.125 27.0229 19.125 27.625C19.125 28.2271 18.9214 28.7318 18.5141 29.1391C18.1068 29.5464 17.6021 29.75 17 29.75ZM34 29.75C33.3979 29.75 32.8932 29.5464 32.4859 29.1391C32.0786 28.7318 31.875 28.2271 31.875 27.625C31.875 27.0229 32.0786 26.5182 32.4859 26.1109C32.8932 25.7036 33.3979 25.5 34 25.5C34.6021 25.5 35.1068 25.7036 35.5141 26.1109C35.9214 26.5182 36.125 27.0229 36.125 27.625C36.125 28.2271 35.9214 28.7318 35.5141 29.1391C35.1068 29.5464 34.6021 29.75 34 29.75ZM25.5 38.25C24.8979 38.25 24.3932 38.0464 23.9859 37.6391C23.5786 37.2318 23.375 36.7271 23.375 36.125C23.375 35.5229 23.5786 35.0182 23.9859 34.6109C24.3932 34.2036 24.8979 34 25.5 34C26.1021 34 26.6068 34.2036 27.0141 34.6109C27.4214 35.0182 27.625 35.5229 27.625 36.125C27.625 36.7271 27.4214 37.2318 27.0141 37.6391C26.6068 38.0464 26.1021 38.25 25.5 38.25ZM17 38.25C16.3979 38.25 15.8932 38.0464 15.4859 37.6391C15.0786 37.2318 14.875 36.7271 14.875 36.125C14.875 35.5229 15.0786 35.0182 15.4859 34.6109C15.8932 34.2036 16.3979 34 17 34C17.6021 34 18.1068 34.2036 18.5141 34.6109C18.9214 35.0182 19.125 35.5229 19.125 36.125C19.125 36.7271 18.9214 37.2318 18.5141 37.6391C18.1068 38.0464 17.6021 38.25 17 38.25ZM34 38.25C33.3979 38.25 32.8932 38.0464 32.4859 37.6391C32.0786 37.2318 31.875 36.7271 31.875 36.125C31.875 35.5229 32.0786 35.0182 32.4859 34.6109C32.8932 34.2036 33.3979 34 34 34C34.6021 34 35.1068 34.2036 35.5141 34.6109C35.9214 35.0182 36.125 35.5229 36.125 36.125C36.125 36.7271 35.9214 37.2318 35.5141 37.6391C35.1068 38.0464 34.6021 38.25 34 38.25Z" fill="#1C1B1F"/>
</g>
</svg>
