<svg width="20" height="20" viewBox="0 0 20 20" fill="none" xmlns="http://www.w3.org/2000/svg">
<mask id="mask0_104_214" style="mask-type:alpha" maskUnits="userSpaceOnUse" x="0" y="0" width="20" height="20">
<rect width="20" height="20" fill="#D9D9D9"/>
</mask>
<g mask="url(#mask0_104_214)">
<path d="M3.58995 16.25C3.16898 16.25 2.81266 16.1042 2.521 15.8125C2.22933 15.5208 2.0835 15.1645 2.0835 14.7435V5.25646C2.0835 4.83549 2.22933 4.47917 2.521 4.1875C2.81266 3.89583 3.16898 3.75 3.58995 3.75H16.4104C16.8313 3.75 17.1877 3.89583 17.4793 4.1875C17.771 4.47917 17.9168 4.83549 17.9168 5.25646V14.7435C17.9168 15.1645 17.771 15.5208 17.4793 15.8125C17.1877 16.1042 16.8313 16.25 16.4104 16.25H3.58995ZM10.0002 10.4648L3.3335 6.20187V14.7435C3.3335 14.8184 3.35752 14.8799 3.40558 14.9279C3.45364 14.976 3.51509 15 3.58995 15H16.4104C16.4852 15 16.5467 14.976 16.5947 14.9279C16.6428 14.8799 16.6668 14.8184 16.6668 14.7435V6.20187L10.0002 10.4648ZM10.0002 9.16667L16.5387 5H3.46162L10.0002 9.16667ZM3.3335 6.20187V5V14.7435C3.3335 14.8184 3.35752 14.8799 3.40558 14.9279C3.45364 14.976 3.51509 15 3.58995 15H3.3335V6.20187Z" fill="#7F7F7F"/>
</g>
</svg>
