<svg width="132" height="132" viewBox="0 0 132 132" fill="none" xmlns="http://www.w3.org/2000/svg">
<path d="M119.263 92.2613C126.762 87.1387 131.7 78.498 131.7 68.7465C131.7 61.0316 128.614 54.0266 123.615 48.9039C124.17 47.7313 124.664 46.5586 125.034 45.2934C127.163 38.5043 126.515 31.3141 123.183 25.0805C121.979 22.8277 120.467 20.791 118.708 19.032C118.677 19.0012 118.677 19.0012 118.646 18.9703C115.838 16.1621 112.443 13.9711 108.617 12.6441C102.383 10.484 95.5943 10.7 89.5458 13.323C89.4224 13.3848 89.2989 13.323 89.2372 13.2305C85.8736 7.52148 80.504 3.35547 74.1778 1.44218C67.8208 -0.471096 61.0318 0.0535135 55.0759 2.95429C53.0392 3.94179 51.1259 5.20703 49.3978 6.68828C48.7497 7.24375 48.688 8.23125 49.2435 8.8793C49.7989 9.52734 50.7864 9.58906 51.4345 9.03359C52.9466 7.7375 54.613 6.62656 56.4337 5.7625C67.2345 0.547263 80.4732 4.49726 86.5833 14.8043C87.4474 16.2238 89.2372 16.8102 90.7493 16.1621C98.3407 12.891 106.92 14.0637 113.338 18.5691H99.822C98.9579 18.5691 98.279 19.248 98.279 20.1121C98.279 20.9762 98.9579 21.6551 99.822 21.6551H116.918C118.091 22.9203 119.171 24.309 120.066 25.852H107.722C106.858 25.852 106.179 26.5309 106.179 27.3949C106.179 28.259 106.858 28.9379 107.722 28.9379H121.547C122.102 30.2957 122.504 31.7152 122.781 33.1348H115.622C114.758 33.1348 114.079 33.8137 114.079 34.6777C114.079 35.5418 114.758 36.2207 115.622 36.2207H123.152C123.306 38.9363 122.936 41.7137 122.102 44.3984C121.856 45.2008 121.547 45.9723 121.238 46.7437C116.332 42.732 110.067 40.325 103.247 40.325C87.54 40.325 74.795 53.1008 74.795 68.7773C74.795 71.2769 75.1345 73.7148 75.7208 76.0293L75.3814 76.2145C73.5607 77.1402 71.4931 77.3871 69.5181 76.9242C69.8575 76.2762 70.0735 75.5664 70.1044 74.7949C70.9376 59.6121 67.4814 33.1348 57.2978 21.7785C52.0208 15.9152 44.7689 12.459 36.8689 12.0269C28.9689 11.5949 21.4083 14.3105 15.545 19.5875C9.68176 24.8645 6.22551 32.1164 5.79348 40.0164C5.39231 47.8855 8.07708 55.4769 13.354 61.3402C16.872 65.2285 22.2107 68.5305 28.3825 71.1844H21.9329C20.606 71.1844 19.4333 72.0484 19.0013 73.3137L0.362232 129.663C0.0844975 130.465 0.547388 131.36 1.34973 131.607C1.50403 131.669 1.65833 131.7 1.84348 131.7C2.49153 131.7 3.10872 131.298 3.29387 130.65L11.1013 107.012H30.1724H48.0091L42.9482 128.614H11.1322C10.2681 128.614 9.58918 129.293 9.58918 130.157C9.58918 131.021 10.2681 131.7 11.1322 131.7H44.1825H109.975H130.157C130.65 131.7 131.113 131.453 131.422 131.052C131.731 130.65 131.792 130.126 131.638 129.663L119.263 92.2613ZM103.247 43.3492C117.258 43.3492 128.614 54.7363 128.614 68.7156C128.614 82.6949 117.227 94.082 103.247 94.082C89.2681 94.082 77.881 82.6949 77.881 68.7156C77.881 54.7363 89.2372 43.3492 103.247 43.3492ZM71.4314 80.1645C73.2212 80.1645 75.0111 79.7633 76.6466 78.9301C78.097 82.6641 80.288 86.0277 83.0653 88.8051H37.3009L41.6212 75.7207C49.9224 77.9734 58.2853 79.2695 64.7349 79.609C64.8275 79.609 64.92 79.609 64.9818 79.609C65.6298 79.609 66.2779 79.4855 66.8333 79.2387C68.3146 79.8559 69.8884 80.1645 71.4314 80.1645ZM15.6376 59.2418C10.9161 53.9957 8.50911 47.2066 8.87942 40.1398C9.24973 33.073 12.3357 26.5926 17.6126 21.8402C22.5193 17.4273 28.7529 15.0512 35.295 15.0512C35.7579 15.0512 36.2517 15.0512 36.7146 15.082C43.7814 15.4523 50.2618 18.5383 55.0142 23.8152C64.6423 34.4926 67.8517 59.9207 67.0493 74.5789C66.9876 75.6898 66.031 76.5539 64.92 76.523C58.347 76.1836 49.6446 74.8258 41.2509 72.4496C41.22 72.4496 41.1892 72.4187 41.1583 72.4187C41.0657 72.3879 40.9732 72.357 40.8806 72.357C39.7696 72.0484 38.6587 71.709 37.5478 71.3387C37.3935 71.2769 37.2392 71.2152 37.0849 71.1844C28.29 68.3144 20.2357 64.3336 15.6376 59.2418ZM29.0614 103.926H12.1197L21.9329 74.2395H36.622C37.3009 74.4555 37.9798 74.6715 38.6587 74.8566L29.0614 103.926ZM32.3017 103.926L36.2825 91.891H86.7376C89.8544 94.1129 93.4032 95.7176 97.2607 96.5508L99.6986 103.926H32.3017ZM46.1267 128.614L51.1876 107.012H100.717L107.845 128.614H46.1267ZM111.086 128.614L100.655 97.0754C101.488 97.1371 102.352 97.1988 103.217 97.1988C108.031 97.1988 112.567 95.9953 116.517 93.8969L128.027 128.614H111.086Z" fill="#086788"/>
</svg>
