<svg width="20" height="20" viewBox="0 0 20 20" fill="none" xmlns="http://www.w3.org/2000/svg">
<mask id="mask0_255_550" style="mask-type:alpha" maskUnits="userSpaceOnUse" x="0" y="0" width="20" height="20">
<rect x="0.5" y="0.5" width="19" height="19" fill="#D9D9D9" stroke="#07A0C3"/>
</mask>
<g mask="url(#mask0_255_550)">
<path d="M7.56828 7.07226L7.56829 7.07227C7.68833 6.96277 7.77157 6.8275 7.81803 6.66618C7.81803 6.66618 7.81803 6.66617 7.81803 6.66617L7.56828 7.07226ZM7.56828 7.07226L7.56799 7.07255M7.56828 7.07226L7.56799 7.07255M7.56799 7.07255L5.64341 8.94609L5.63661 8.95271M7.56799 7.07255L5.63661 8.95271M5.63661 8.95271L5.64116 8.96104M5.63661 8.95271L5.64116 8.96104M5.64116 8.96104C5.95121 9.52887 6.30548 10.066 6.70397 10.5726C7.10221 11.0788 7.53338 11.5623 7.99749 12.0231C8.4551 12.4808 8.94162 12.9059 9.45706 13.2983C9.97253 13.6908 10.5291 14.0559 11.1268 14.3938L11.1351 14.3985M5.64116 8.96104L11.1351 14.3985M11.1351 14.3985L11.1418 14.3918M11.1351 14.3985L11.1418 14.3918M11.1418 14.3918L13.0118 12.5055L13.012 12.5054M11.1418 14.3918L13.012 12.5054M13.012 12.5054C13.1408 12.3713 13.2969 12.2773 13.4802 12.2233C13.6636 12.1694 13.8543 12.1561 14.0523 12.1836L16.3655 12.6547C16.5734 12.7097 16.7428 12.8157 16.874 12.9726C17.0052 13.1296 17.0707 13.3074 17.0707 13.5063V16.2082C17.0707 16.455 16.9878 16.6601 16.8221 16.8243C16.6564 16.9885 16.4494 17.0707 16.2 17.0707C14.6316 17.0707 13.0557 16.706 11.4722 15.9764M13.012 12.5054L11.4722 15.9764M11.4722 15.9764C9.88874 15.2468 8.43376 14.2175 7.10723 12.8885M11.4722 15.9764L7.10723 12.8885M7.10723 12.8885C5.78082 11.5593 4.75289 10.1043 4.02327 8.52335M7.10723 12.8885L4.02327 8.52335M4.02327 8.52335C3.29367 6.94259 2.929 5.36805 2.929 3.79963M4.02327 8.52335L2.929 3.79963M2.929 3.79963C2.929 3.55032 3.0112 3.34328 3.17538 3.17759M2.929 3.79963L3.17538 3.17759M3.17538 3.17759C3.33956 3.01191 3.54463 2.929 3.7915 2.929M3.17538 3.17759L3.7915 2.929M3.7915 2.929H6.50942M3.7915 2.929H6.50942M6.50942 2.929C6.71684 2.929 6.89959 2.99661 7.05818 3.13205M6.50942 2.929L7.05818 3.13205M7.05818 3.13205L7.05818 3.13206C7.21695 3.26751 7.31775 3.43466 7.36093 3.6338M7.05818 3.13205L7.36093 3.6338M7.36093 3.6338C7.36094 3.63385 7.36094 3.6339 7.36095 3.63394M7.36093 3.6338L7.36095 3.63394M7.36095 3.63394L7.83855 6.08527L7.36095 3.63394ZM5.04923 7.77738L5.05642 7.7937L5.06931 7.78137L6.55622 6.35861C6.58514 6.33525 6.60372 6.30334 6.61226 6.26372C6.62067 6.22476 6.61946 6.188 6.60821 6.15375L6.24607 4.29224L6.24608 4.29224L6.24592 4.29159C6.23475 4.24707 6.21491 4.21237 6.18558 4.18884C6.15618 4.16526 6.11848 4.154 6.07359 4.154H4.2915C4.25633 4.154 4.22634 4.16586 4.20246 4.18975L4.20243 4.18978C4.17869 4.21367 4.16692 4.24365 4.16692 4.2788H4.16689L4.16696 4.27973C4.20965 4.8499 4.30296 5.42905 4.44686 6.01718C4.59066 6.60557 4.79145 7.1923 5.04923 7.77738ZM12.3018 14.9654L12.2893 14.978L12.3054 14.9855C12.8586 15.2434 13.4355 15.4406 14.0362 15.577C14.6368 15.7133 15.1982 15.7943 15.7203 15.82L15.7203 15.82H15.7209C15.7561 15.82 15.786 15.8082 15.8099 15.7843C15.8338 15.7604 15.8457 15.7304 15.8457 15.6953V13.9421C15.8457 13.8972 15.8344 13.8595 15.8108 13.8301C15.7873 13.8008 15.7526 13.781 15.7081 13.7698L15.7075 13.7697L13.9583 13.414C13.9248 13.4029 13.8941 13.4012 13.8669 13.4103C13.8404 13.4192 13.8134 13.4379 13.7858 13.4654L13.7857 13.4654L12.3018 14.9654Z" fill="#07A0C3" stroke="#07A0C3" stroke-width="0.025"/>
</g>
</svg>
