<svg width="20" height="20" viewBox="0 0 20 20" fill="none" xmlns="http://www.w3.org/2000/svg">
<mask id="mask0_104_219" style="mask-type:alpha" maskUnits="userSpaceOnUse" x="0" y="0" width="20" height="20">
<rect width="20" height="20" fill="#D9D9D9"/>
</mask>
<g mask="url(#mask0_104_219)">
<path d="M10.0014 9.88763C10.416 9.88763 10.7704 9.73999 11.0648 9.44471C11.3592 9.14943 11.5064 8.7945 11.5064 8.37992C11.5064 7.96533 11.3588 7.61082 11.0635 7.31638C10.7682 7.02207 10.4132 6.87492 9.9985 6.87492C9.58392 6.87492 9.22948 7.02256 8.93517 7.31784C8.64073 7.61311 8.4935 7.96811 8.4935 8.38284C8.4935 8.79742 8.64114 9.15186 8.93642 9.44617C9.2317 9.74047 9.5867 9.88763 10.0014 9.88763ZM9.99996 16.2612C11.6302 14.8017 12.8778 13.4019 13.7427 12.0616C14.6075 10.7213 15.04 9.54742 15.04 8.53992C15.04 7.02075 14.5573 5.77186 13.592 4.79325C12.6268 3.81464 11.4294 3.32534 9.99996 3.32534C8.57052 3.32534 7.37316 3.81464 6.40788 4.79325C5.4426 5.77186 4.95996 7.02075 4.95996 8.53992C4.95996 9.54742 5.39239 10.7213 6.25725 12.0616C7.12211 13.4019 8.36968 14.8017 9.99996 16.2612ZM9.99996 17.9245C7.90274 16.1073 6.3301 14.4161 5.28204 12.851C4.23399 11.2857 3.70996 9.84867 3.70996 8.53992C3.70996 6.61686 4.33197 5.05999 5.576 3.86929C6.82017 2.6786 8.29482 2.08325 9.99996 2.08325C11.7051 2.08325 13.1798 2.6786 14.4239 3.86929C15.6679 5.05999 16.29 6.61686 16.29 8.53992C16.29 9.84867 15.7659 11.2857 14.7179 12.851C13.6698 14.4161 12.0972 16.1073 9.99996 17.9245Z" fill="#7F7F7F"/>
</g>
</svg>
