<svg width="20" height="20" viewBox="0 0 20 20" fill="none" xmlns="http://www.w3.org/2000/svg">
<mask id="mask0_255_561" style="mask-type:alpha" maskUnits="userSpaceOnUse" x="0" y="0" width="20" height="20">
<rect width="20" height="20" fill="#D9D9D9"/>
</mask>
<g mask="url(#mask0_255_561)">
<path d="M10.0014 9.88787C10.416 9.88787 10.7704 9.74023 11.0648 9.44495C11.3592 9.14968 11.5064 8.79475 11.5064 8.38016C11.5064 7.96558 11.3588 7.61107 11.0635 7.31662C10.7682 7.02232 10.4132 6.87516 9.9985 6.87516C9.58392 6.87516 9.22948 7.0228 8.93517 7.31808C8.64073 7.61336 8.4935 7.96836 8.4935 8.38308C8.4935 8.79766 8.64114 9.15211 8.93642 9.44641C9.2317 9.74072 9.5867 9.88787 10.0014 9.88787ZM9.99996 16.2614C11.6302 14.802 12.8778 13.4021 13.7427 12.0618C14.6075 10.7216 15.04 9.54766 15.04 8.54016C15.04 7.021 14.5573 5.77211 13.592 4.7935C12.6268 3.81489 11.4294 3.32558 9.99996 3.32558C8.57052 3.32558 7.37316 3.81489 6.40788 4.7935C5.4426 5.77211 4.95996 7.021 4.95996 8.54016C4.95996 9.54766 5.39239 10.7216 6.25725 12.0618C7.12211 13.4021 8.36968 14.802 9.99996 16.2614ZM9.99996 17.9247C7.90274 16.1075 6.3301 14.4163 5.28204 12.8512C4.23399 11.2859 3.70996 9.84891 3.70996 8.54016C3.70996 6.61711 4.33197 5.06023 5.576 3.86954C6.82017 2.67884 8.29482 2.0835 9.99996 2.0835C11.7051 2.0835 13.1798 2.67884 14.4239 3.86954C15.6679 5.06023 16.29 6.61711 16.29 8.54016C16.29 9.84891 15.7659 11.2859 14.7179 12.8512C13.6698 14.4163 12.0972 16.1075 9.99996 17.9247Z" fill="#07A0C3"/>
</g>
</svg>
