<svg width="86" height="85" viewBox="0 0 86 85" fill="none" xmlns="http://www.w3.org/2000/svg">
<path d="M10.7897 78.241L16.2675 83.2194C17.3465 84.2 18.774 84.728 20.2846 84.728H82.0182C83.8607 84.728 85.3547 83.3703 85.3547 81.6957V62.144C85.3547 60.907 85.0227 59.685 84.3919 58.5837L78.6983 48.7324C78.0675 47.6462 77.1379 46.6958 76.0091 45.9867L43.4077 25.6053V2.79499C43.4077 1.95017 42.9595 1.16569 42.1959 0.698015C41.4324 0.215257 40.4696 0.109653 39.6064 0.411377L21.7122 6.58162L3.80129 0.411377C2.93811 0.109653 1.97534 0.215257 1.21176 0.698015C0.448187 1.18077 0 1.96525 0 2.79499V24.8812C0 26.2691 0.597582 27.5665 1.65995 28.532L9.11313 35.3057V74.56C9.11313 75.9479 9.71071 77.2453 10.7731 78.2108L10.7897 78.241ZM12.4496 38.338L17.8611 43.2561C19.9858 45.1872 23.4385 45.1872 25.5466 43.2561L34.278 35.3208L12.433 70.366V38.338H12.4496ZM16.8485 38.0665H26.5924L23.2227 41.129C22.3927 41.8833 21.0482 41.8833 20.2182 41.129L16.8485 38.0665ZM48.6366 81.7108L82.0514 63.3208V81.7108H48.6366ZM81.4538 60.0018C81.4538 60.0018 81.4538 60.0772 81.487 60.1074L71.5937 65.5535L76.7561 51.9005L81.4538 60.0018ZM74.1334 48.491C74.2662 48.5665 74.316 48.7022 74.4322 48.7928L67.1616 67.9824L42.2291 81.7108H20.3012C19.6704 81.7108 19.0728 81.4845 18.6246 81.0772L13.1468 76.0987C13.0306 75.9931 13.0472 75.8121 12.9642 75.6763L42.2955 28.5924L74.1168 48.491H74.1334ZM9.61111 17.0514L3.3199 22.7691V6.98895L9.61111 17.0514ZM5.37824 4.18292L18.7076 8.78421L12.0346 14.8489L5.36164 4.19801L5.37824 4.18292ZM40.0712 6.98895V22.7691L33.78 17.0514L40.0712 6.98895ZM31.3399 14.8338L24.6669 8.76912L37.9963 4.16784L31.3233 14.8338H31.3399ZM4.00048 26.4049L21.6956 10.323L39.3906 26.4049L29.8957 35.0342H13.512L4.01708 26.4049H4.00048Z" fill="#F05508"/>
</svg>
