<svg width="20" height="20" viewBox="0 0 20 20" fill="none" xmlns="http://www.w3.org/2000/svg">
<mask id="mask0_255_556" style="mask-type:alpha" maskUnits="userSpaceOnUse" x="0" y="0" width="20" height="20">
<rect width="20" height="20" fill="#D9D9D9"/>
</mask>
<g mask="url(#mask0_255_556)">
<path d="M3.50646 16.25C3.08549 16.25 2.72917 16.1042 2.4375 15.8125C2.14583 15.5208 2 15.1645 2 14.7435V5.25646C2 4.83549 2.14583 4.47917 2.4375 4.1875C2.72917 3.89583 3.08549 3.75 3.50646 3.75H16.3269C16.7478 3.75 17.1042 3.89583 17.3958 4.1875C17.6875 4.47917 17.8333 4.83549 17.8333 5.25646V14.7435C17.8333 15.1645 17.6875 15.5208 17.3958 15.8125C17.1042 16.1042 16.7478 16.25 16.3269 16.25H3.50646ZM9.91667 10.4648L3.25 6.20187V14.7435C3.25 14.8184 3.27403 14.8799 3.32208 14.9279C3.37014 14.976 3.4316 15 3.50646 15H16.3269C16.4017 15 16.4632 14.976 16.5112 14.9279C16.5593 14.8799 16.5833 14.8184 16.5833 14.7435V6.20187L9.91667 10.4648ZM9.91667 9.16667L16.4552 5H3.37812L9.91667 9.16667ZM3.25 6.20187V5V14.7435C3.25 14.8184 3.27403 14.8799 3.32208 14.9279C3.37014 14.976 3.4316 15 3.50646 15H3.25V6.20187Z" fill="#07A0C3"/>
</g>
</svg>
