<svg width="158" height="158" viewBox="0 0 158 158" fill="none" xmlns="http://www.w3.org/2000/svg">
<path d="M78.0319 103.784C68.6993 103.784 61.1069 110.852 61.1069 119.539C61.1069 123.665 63.5382 126.128 67.6103 126.128C69.4803 126.128 71.5326 125.653 73.5171 125.193C75.1595 124.813 76.8576 124.419 78.0319 124.419C79.0543 124.419 80.6678 124.795 82.2278 125.159C84.2711 125.635 86.3842 126.128 88.3334 126.128C92.4809 126.128 94.9574 123.665 94.9574 119.539C94.9571 110.852 87.3647 103.784 78.0319 103.784ZM89.3861 120.552C89.3839 120.554 89.1547 120.718 88.3328 120.718C87.006 120.718 85.2013 120.297 83.4561 119.89C81.5127 119.437 79.6765 119.009 78.0319 119.009C76.2392 119.009 74.2347 119.473 72.2963 119.922C70.6081 120.313 68.862 120.717 67.6103 120.717C66.9156 120.717 66.6868 120.581 66.6833 120.594C66.6712 120.575 66.5169 120.321 66.5169 119.538C66.5169 113.834 71.6825 109.193 78.0319 109.193C84.3816 109.193 89.5471 113.834 89.5471 119.538C89.5471 120.203 89.424 120.504 89.3861 120.552Z" fill="#086788"/>
<path d="M69.6099 98.6178C69.6099 93.856 66.3069 89.9822 62.2469 89.9822C58.1866 89.9822 54.8833 93.856 54.8833 98.6178C54.8833 103.379 58.1866 107.253 62.2469 107.253C66.3069 107.253 69.6099 103.379 69.6099 98.6178ZM60.2936 98.6178C60.2936 96.7717 61.325 95.3921 62.2472 95.3921C63.1691 95.3921 64.2002 96.7717 64.2002 98.6178C64.2002 100.464 63.1691 101.843 62.2472 101.843C61.3247 101.843 60.2936 100.464 60.2936 98.6178Z" fill="#086788"/>
<path d="M78.5226 101.913C82.5827 101.913 85.8859 98.0389 85.8859 93.2772C85.8859 88.5155 82.5827 84.6416 78.5226 84.6416C74.4626 84.6416 71.1597 88.5155 71.1597 93.2772C71.1597 98.0389 74.4626 101.913 78.5226 101.913ZM78.5226 90.0519C79.4449 90.0519 80.4759 91.4314 80.4759 93.2775C80.4759 95.1236 79.4449 96.5031 78.5226 96.5031C77.6007 96.5031 76.5696 95.1236 76.5696 93.2775C76.5696 91.4314 77.6007 90.0519 78.5226 90.0519Z" fill="#086788"/>
<path d="M94.7982 89.9822C90.7378 89.9822 87.4346 93.856 87.4346 98.6178C87.4346 103.379 90.7378 107.253 94.7982 107.253C98.8585 107.253 102.162 103.379 102.162 98.6178C102.162 93.856 98.8585 89.9822 94.7982 89.9822ZM94.7982 101.843C93.8763 101.843 92.8445 100.464 92.8445 98.6174C92.8445 96.7714 93.8759 95.3918 94.7982 95.3918C95.7201 95.3918 96.7518 96.7714 96.7518 98.6174C96.7518 100.464 95.7201 101.843 94.7982 101.843Z" fill="#086788"/>
<path d="M153.95 53.8015L84.2675 1.69205C82.7874 0.585549 81.0241 0.000318233 79.1682 0.000318233L79.1329 0.000636467C79.116 0.000318233 79.1004 0 79.0877 0L79.0326 0.0009547C79.0122 0.000318233 78.9925 0.000636467 78.9725 0.000636467L78.912 0C78.8993 0 78.8837 0.000318233 78.8671 0.000636467L78.8318 0.000318233C76.9759 0.000318233 75.2125 0.585549 73.7324 1.69205L4.05077 53.8018C0.286709 56.6166 -0.48628 61.9696 2.32818 65.7349L8.16649 73.5418C9.76815 75.6835 12.322 76.9616 14.9983 76.9616C16.3575 76.9616 17.6686 76.6424 18.8582 76.0345V149.475C18.8582 154.175 22.683 158 27.384 158H130.616C135.317 158 139.142 154.175 139.142 149.475V76.0342C140.332 76.6424 141.642 76.9619 143.002 76.9619H143.002C145.678 76.9619 148.232 75.6829 149.833 73.5418L155.672 65.7343C158.486 61.9696 157.714 56.6166 153.95 53.8015ZM130.616 152.59H27.384C25.6658 152.59 24.2681 151.192 24.2681 149.475V72.146L79.0005 31.2171L133.732 72.1457V149.475C133.732 151.193 132.334 152.59 130.616 152.59ZM151.339 62.4947L145.501 70.3019C144.907 71.0962 143.996 71.5519 143.002 71.5519C142.327 71.5519 141.684 71.3371 141.14 70.9307L80.6203 25.6728C80.1401 25.3139 79.5701 25.1344 79.0005 25.1344C78.4308 25.1344 77.8609 25.3139 77.3807 25.6728L16.8597 70.931C16.3164 71.3371 15.6727 71.5516 14.9983 71.5516C14.0042 71.5516 13.0931 71.0959 12.4989 70.3016L6.66092 62.4953C5.63239 61.1193 5.91467 59.1628 7.29039 58.1342L76.9724 6.02511C77.5099 5.62287 78.1527 5.4106 78.8608 5.4106C78.8608 5.4106 78.8611 5.4106 78.8617 5.4106C78.8824 5.4106 78.9028 5.41092 78.9235 5.41029L78.9785 5.41092C78.9941 5.41124 79.0103 5.41124 79.0221 5.41092L79.0835 5.41029C79.1141 5.41029 79.1449 5.4106 79.1682 5.41029C79.847 5.41029 80.4901 5.62287 81.0276 6.02511L150.71 58.1339C152.085 59.1628 152.367 61.1193 151.339 62.4947Z" fill="#086788"/>
<path d="M99.0273 66.8022C114.084 66.8022 126.334 79.0517 126.334 94.1079C126.334 101.505 123.991 108.753 119.345 115.669L118.888 116.337C115.256 121.56 110.297 126.598 104.126 131.323L102.876 132.264C92.9114 139.634 83.0692 143.947 80.458 145.03L79.8027 145.295V145.296C79.545 145.397 79.2718 145.447 79 145.447C78.7687 145.447 78.5376 145.41 78.3154 145.337L78.0957 145.252L77.4414 144.95C74.9303 143.765 65.7201 139.222 56.1553 132.045L55.0918 131.238C48.7782 126.381 43.6653 121.342 39.8672 116.248L39.125 115.228C34.1622 108.238 31.667 101.134 31.667 94.1079C31.6672 79.0518 43.9169 66.8024 58.9727 66.8022C66.5067 66.8022 73.5122 69.8125 78.6396 75.1597L79 75.5356L79.3613 75.1597C84.4887 69.8127 91.4929 66.8023 99.0273 66.8022ZM99.0273 71.2124C92.018 71.2125 85.5477 74.3245 81.1748 79.7729L80.7588 80.3071C80.3418 80.8579 79.6907 81.1812 79 81.1812C78.3526 81.1811 77.7404 80.8968 77.3232 80.4077L77.2422 80.3071C72.8692 74.5284 66.2081 71.2124 58.9727 71.2124C46.3474 71.2126 36.0773 81.4826 36.0771 94.1079C36.0771 106.549 45.208 117.418 55.0234 125.526C64.8641 133.654 75.5278 139.118 78.8516 140.732L79.0576 140.832L79.2676 140.741C82.6091 139.302 93.2452 134.411 103.054 126.52C112.847 118.641 121.924 107.684 121.924 94.1079C121.924 81.4825 111.653 71.2124 99.0273 71.2124Z" fill="#086788" stroke="#086788"/>
</svg>
