<svg width="120" height="120" viewBox="0 0 120 120" fill="none" xmlns="http://www.w3.org/2000/svg">
<path d="M117.093 27.1733L110.097 20.1744C107.32 17.4391 102.643 17.1721 99.4985 20.3167V13.0938C99.4985 6.38708 94.0963 0.75 87.1548 0.75H13.0923C6.28625 0.75 0.748535 6.28771 0.748535 13.0938V111.844C0.748535 115.928 4.07086 119.25 8.15479 119.25H72.3423C76.4262 119.25 79.7485 115.928 79.7485 111.844V74.9958C92.7246 62.0197 103.892 50.8524 117.093 37.651C117.093 37.651 117.093 37.651 117.096 37.651C119.982 34.7604 119.982 30.0593 117.093 27.1733ZM87.1551 5.6875C91.3467 5.6875 94.5614 9.09314 94.5614 13.0938V25.2542C92.0636 27.752 94.5959 25.2184 79.7489 40.0732V13.0938C79.7489 9.00982 83.0709 5.6875 87.1551 5.6875ZM57.4492 89.0242C53.8717 90.1549 50.9666 91.0729 48.1081 91.9685L48.0162 91.9975C47.1888 91.0066 46.2735 90.0913 45.282 89.2649L48.264 79.8102C52.3809 81.583 55.6887 84.9007 57.4492 89.0242ZM25.0126 31.9254C28.8438 26.9382 35.9767 26.6043 40.2495 30.924C44.5226 26.6043 51.6554 26.9379 55.4866 31.9254C58.6574 36.0528 58.0279 41.9936 54.3713 45.6902L44.342 55.829C42.0837 58.112 38.4158 58.112 36.1575 55.829L26.1282 45.6902C22.4714 41.9936 21.8418 36.0531 25.0126 31.9254ZM15.5613 69.875H32.8426C34.2072 69.875 35.3113 70.9791 35.3113 72.3438C35.3113 73.7084 34.2072 74.8125 32.8426 74.8125H15.5613C14.1967 74.8125 13.0926 73.7084 13.0926 72.3438C13.0926 70.9791 14.1967 69.875 15.5613 69.875ZM15.5613 82.2188H32.8426C34.2072 82.2188 35.3113 83.3229 35.3113 84.6875C35.3113 86.0521 34.2072 87.1562 32.8426 87.1562H15.5613C14.1967 87.1562 13.0926 86.0521 13.0926 84.6875C13.0926 83.3229 14.1967 82.2188 15.5613 82.2188ZM64.9364 99.5H40.2488H15.5613C14.1967 99.5 13.0926 98.3959 13.0926 97.0312C13.0926 95.6666 14.1967 94.5625 15.5613 94.5625H38.438L37.8933 96.2912C37.6184 97.1689 37.8523 98.1258 38.5034 98.777C38.9734 99.247 39.6051 99.5003 40.2488 99.5003C40.4973 99.5003 40.7478 99.4617 40.9913 99.3871L49.5884 96.6798C51.2403 96.1619 52.6685 95.7136 56.3115 94.5631H64.9364C66.301 94.5631 67.4051 95.6673 67.4051 97.0319C67.4051 98.3965 66.301 99.5 64.9364 99.5ZM61.5819 86.1786C60.8429 84.6437 59.9211 83.2149 58.8666 81.8969L89.2813 51.48C90.2457 50.5157 90.2457 48.9533 89.2813 47.9889C88.317 47.0246 86.7545 47.0246 85.7902 47.9889L55.3798 78.4018C54.072 77.3498 52.6549 76.4283 51.1317 75.688C53.9584 72.8591 50.5238 76.2959 94.3876 32.4099L104.87 42.8925C70.2118 77.5507 79.3767 68.3863 61.5819 86.1786Z" fill="#086788"/>
</svg>
