<svg width="38" height="38" viewBox="0 0 38 38" fill="none" xmlns="http://www.w3.org/2000/svg">
<path d="M18.9993 3.16699C10.2752 3.16699 3.16602 10.2762 3.16602 19.0003C3.16602 27.7245 10.2752 34.8337 18.9993 34.8337C27.7235 34.8337 34.8327 27.7245 34.8327 19.0003C34.8327 10.2762 27.7235 3.16699 18.9993 3.16699ZM26.5677 15.3587L17.5902 24.3362C17.3685 24.5578 17.0677 24.6845 16.751 24.6845C16.4343 24.6845 16.1335 24.5578 15.9118 24.3362L11.431 19.8553C10.9718 19.3962 10.9718 18.6362 11.431 18.177C11.8902 17.7178 12.6502 17.7178 13.1093 18.177L16.751 21.8187L24.8893 13.6803C25.3485 13.2212 26.1085 13.2212 26.5677 13.6803C27.0268 14.1395 27.0268 14.8837 26.5677 15.3587Z" fill="#3C7248"/>
</svg>
